<svg width="10" height="10" viewBox="0 0 10 10" fill="none" xmlns="http://www.w3.org/2000/svg">
<g id="Group 474">
<path id="Arrow 5 (Stroke)" fill-rule="evenodd" clip-rule="evenodd" d="M6.02051 9.80113L9.82491 5.48011C10.0584 5.21495 10.0584 4.78505 9.82491 4.51989L6.02051 0.198869C5.78706 -0.0662909 5.40855 -0.0662909 5.17509 0.198869C4.94164 0.464028 4.94164 0.893936 5.17509 1.1591L8.20677 5.00013L5.17509 8.8409C4.94164 9.10606 4.94164 9.53597 5.17509 9.80113C5.40855 10.0663 5.78706 10.0663 6.02051 9.80113Z" fill="#0969FE"/>
<path id="Arrow 5 (Stroke)_2" fill-rule="evenodd" clip-rule="evenodd" d="M1.02051 9.80113L4.82491 5.48011C5.05836 5.21495 5.05836 4.78505 4.82491 4.51989L1.02051 0.198869C0.787057 -0.0662909 0.408549 -0.0662909 0.175092 0.198869C-0.0583641 0.464028 -0.0583641 0.893936 0.175092 1.1591L3.20677 5.00013L0.175092 8.8409C-0.0583641 9.10606 -0.0583641 9.53597 0.175092 9.80113C0.408549 10.0663 0.787057 10.0663 1.02051 9.80113Z" fill="#0969FE"/>
</g>
</svg>
