<svg width="40" height="40" viewBox="0 0 40 40" fill="none" xmlns="http://www.w3.org/2000/svg">
<g id="Group 18324">
<circle id="Ellipse 475" cx="20" cy="20" r="20" fill="white"/>
<path id="Arrow 7" d="M21 13C21 12.4477 20.5523 12 20 12C19.4477 12 19 12.4477 19 13L21 13ZM19.2929 27.7071C19.6834 28.0976 20.3166 28.0976 20.7071 27.7071L27.0711 21.3431C27.4616 20.9526 27.4616 20.3195 27.0711 19.9289C26.6805 19.5384 26.0474 19.5384 25.6569 19.9289L20 25.5858L14.3431 19.9289C13.9526 19.5384 13.3195 19.5384 12.9289 19.9289C12.5384 20.3195 12.5384 20.9526 12.9289 21.3431L19.2929 27.7071ZM19 13L19 27L21 27L21 13L19 13Z" fill="#0969FE"/>
</g>
</svg>
