<svg width="76" height="76" viewBox="0 0 76 76" fill="none" xmlns="http://www.w3.org/2000/svg">
<circle cx="38.0001" cy="38.0012" r="22.8" fill="white"/>
<circle cx="38" cy="37.999" r="29.3154" stroke="white"/>
<circle cx="38" cy="38" r="37.5" stroke="white"/>
<path d="M38 27.4222C36.9116 27.4222 36.0598 27.1311 35.4446 26.5488C34.8452 25.9504 34.5455 25.1256 34.5455 24.0744C34.5455 23.0555 34.8452 22.2468 35.4446 21.6484C36.0598 21.0338 36.9116 20.7266 38 20.7266C39.0727 20.7266 39.9166 21.0338 40.5318 21.6484C41.147 22.2468 41.4546 23.0555 41.4546 24.0744C41.4546 25.1256 41.147 25.9504 40.5318 26.5488C39.9166 27.1311 39.0727 27.4222 38 27.4222ZM35.208 55.272V31.6433H40.792V55.272H35.208Z" fill="#0969FE"/>
</svg>
