<svg width="10" height="10" viewBox="0 0 10 10" fill="none" xmlns="http://www.w3.org/2000/svg">
<path fill-rule="evenodd" clip-rule="evenodd" d="M0.198869 6.02051L4.51989 9.82491C4.78505 10.0584 5.21495 10.0584 5.48011 9.82491L9.80113 6.02051C10.0663 5.78706 10.0663 5.40855 9.80113 5.17509C9.53597 4.94164 9.10606 4.94164 8.8409 5.17509L4.99987 8.20677L1.1591 5.17509C0.893936 4.94164 0.464029 4.94164 0.198869 5.17509C-0.0662898 5.40855 -0.0662898 5.78706 0.198869 6.02051Z" fill="white"/>
<path fill-rule="evenodd" clip-rule="evenodd" d="M0.198869 1.02051L4.51989 4.82491C4.78505 5.05836 5.21495 5.05836 5.48011 4.82491L9.80113 1.02051C10.0663 0.787057 10.0663 0.408549 9.80113 0.175093C9.53597 -0.0583637 9.10606 -0.0583637 8.8409 0.175093L4.99987 3.20677L1.1591 0.175092C0.893936 -0.0583641 0.464029 -0.0583641 0.198869 0.175092C-0.0662898 0.408549 -0.0662898 0.787057 0.198869 1.02051Z" fill="white"/>
</svg>
