<svg width="40" height="41" viewBox="0 0 40 41" fill="none" xmlns="http://www.w3.org/2000/svg">
<ellipse cx="20" cy="20.5" rx="20" ry="20.5" fill="#D9D9D9"/>
<path fill-rule="evenodd" clip-rule="evenodd" d="M25.9706 15.6569C25.3848 15.0711 24.435 15.0711 23.8493 15.6569L20.3137 19.1924L16.7782 15.6569C16.1924 15.0711 15.2427 15.0711 14.6569 15.6569C14.0711 16.2426 14.0711 17.1924 14.6569 17.7782L18.1924 21.3137L14.6569 24.8492C14.0711 25.435 14.0711 26.3848 14.6569 26.9706C15.2427 27.5563 16.1924 27.5563 16.7782 26.9706L20.3137 23.435L23.8493 26.9706C24.435 27.5563 25.3848 27.5563 25.9706 26.9706C26.5564 26.3848 26.5564 25.435 25.9706 24.8492L22.435 21.3137L25.9706 17.7782C26.5564 17.1924 26.5564 16.2426 25.9706 15.6569Z" fill="#7C7B7F"/>
</svg>
