<svg width="20" height="20" viewBox="0 0 20 20" fill="none" xmlns="http://www.w3.org/2000/svg">
<circle cx="10" cy="10" r="6" fill="#0969FE"/>
<circle cx="9.99996" cy="9.99996" r="7.59615" stroke="#0969FE" stroke-width="0.5"/>
<circle cx="10" cy="10" r="9.75" stroke="#0969FE" stroke-width="0.5"/>
<path d="M9.97713 7.51112C9.72157 7.51112 9.52157 7.44445 9.37713 7.31112C9.23639 7.17408 9.16602 6.98519 9.16602 6.74445C9.16602 6.51112 9.23639 6.32593 9.37713 6.18889C9.52157 6.04815 9.72157 5.97778 9.97713 5.97778C10.229 5.97778 10.4271 6.04815 10.5716 6.18889C10.716 6.32593 10.7882 6.51112 10.7882 6.74445C10.7882 6.98519 10.716 7.17408 10.5716 7.31112C10.4271 7.44445 10.229 7.51112 9.97713 7.51112ZM9.32157 13.8889V8.47778H10.6327V13.8889H9.32157Z" fill="white"/>
</svg>
