<svg width="36" height="40" viewBox="0 0 36 40" fill="none" xmlns="http://www.w3.org/2000/svg">
<ellipse cx="18.0002" cy="19.7747" rx="10.8" ry="11.8648" fill="#D9D9D9"/>
<path d="M31.6231 19.7746C31.6231 28.1128 25.4806 34.7901 18 34.7901C10.5194 34.7901 4.37695 28.1128 4.37695 19.7746C4.37695 11.4365 10.5194 4.75916 18 4.75916C25.4806 4.75916 31.6231 11.4365 31.6231 19.7746Z" stroke="#D9D9D9"/>
<path d="M35.5 19.7746C35.5 30.465 27.6218 39.0493 18 39.0493C8.37822 39.0493 0.5 30.465 0.5 19.7746C0.5 9.08427 8.37822 0.5 18 0.5C27.6218 0.5 35.5 9.08427 35.5 19.7746Z" stroke="#D9D9D9"/>
<path d="M17.9588 14.2101C17.4988 14.2101 17.1388 14.0901 16.8788 13.8501C16.6254 13.6034 16.4988 13.2634 16.4988 12.8301C16.4988 12.4101 16.6254 12.0767 16.8788 11.8301C17.1388 11.5767 17.4988 11.4501 17.9588 11.4501C18.4121 11.4501 18.7688 11.5767 19.0288 11.8301C19.2888 12.0767 19.4188 12.4101 19.4188 12.8301C19.4188 13.2634 19.2888 13.6034 19.0288 13.8501C18.7688 14.0901 18.4121 14.2101 17.9588 14.2101ZM16.7788 25.6901V15.9501H19.1388V25.6901H16.7788Z" fill="#0969FE"/>
</svg>
