<svg width="13" height="13" viewBox="0 0 13 13" fill="none" xmlns="http://www.w3.org/2000/svg">
<path fill-rule="evenodd" clip-rule="evenodd" d="M11.9706 0.656854C11.3848 0.0710676 10.435 0.0710678 9.84925 0.656854L6.31372 4.19239L2.77819 0.656854C2.1924 0.0710674 1.24265 0.0710673 0.656867 0.656854C0.0710807 1.24264 0.0710807 2.19239 0.656867 2.77817L4.1924 6.31371L0.656867 9.84924C0.07108 10.435 0.07108 11.3848 0.656867 11.9706C1.24265 12.5563 2.1924 12.5563 2.77819 11.9706L6.31372 8.43503L9.84925 11.9706C10.435 12.5563 11.3848 12.5563 11.9706 11.9706C12.5564 11.3848 12.5564 10.435 11.9706 9.84924L8.43504 6.31371L11.9706 2.77817C12.5564 2.19239 12.5564 1.24264 11.9706 0.656854Z" fill="white"/>
</svg>
