<svg width="11" height="15" viewBox="0 0 11 15" fill="none" xmlns="http://www.w3.org/2000/svg">
<path d="M3.322 10.296V9.416C3.322 8.778 3.39533 8.25367 3.542 7.843C3.696 7.43233 3.93067 7.08767 4.246 6.809C4.56867 6.523 4.994 6.248 5.522 5.984C5.984 5.74933 6.34333 5.533 6.6 5.335C6.85667 5.12967 7.03267 4.92067 7.128 4.708C7.23067 4.49533 7.282 4.246 7.282 3.96C7.282 3.498 7.095 3.11667 6.721 2.816C6.347 2.508 5.83733 2.354 5.192 2.354C4.422 2.354 3.828 2.52633 3.41 2.871C2.99933 3.20833 2.76467 3.65933 2.706 4.224H0C0.0806667 2.948 0.55 1.925 1.408 1.155C2.27333 0.385 3.498 0 5.082 0C6.12333 0 7.02167 0.176 7.777 0.528001C8.53233 0.880001 9.11533 1.35667 9.526 1.958C9.93667 2.55933 10.142 3.234 10.142 3.982C10.142 4.74467 9.94767 5.39 9.559 5.918C9.17767 6.446 8.58 6.91533 7.766 7.326C7.28933 7.568 6.91533 7.79533 6.644 8.008C6.38 8.22067 6.193 8.45533 6.083 8.712C5.973 8.96133 5.918 9.27667 5.918 9.658V10.296H3.322ZM4.686 14.872C4.15067 14.872 3.71433 14.707 3.377 14.377C3.047 14.047 2.882 13.6437 2.882 13.167C2.882 12.6683 3.047 12.254 3.377 11.924C3.71433 11.5867 4.147 11.418 4.675 11.418C5.21033 11.418 5.654 11.5867 6.006 11.924C6.358 12.254 6.534 12.6647 6.534 13.156C6.534 13.64 6.358 14.047 6.006 14.377C5.654 14.707 5.214 14.872 4.686 14.872Z" fill="white"/>
</svg>
