<svg width="29" height="29" viewBox="0 0 29 29" fill="none" xmlns="http://www.w3.org/2000/svg">
<rect width="29" height="29" rx="14.5" fill="#F7931A"/>
<path d="M18.9739 13.2261C19.1819 11.8601 18.123 11.1258 16.6749 10.636L17.1447 8.78565L15.9978 8.50499L15.5405 10.3066C15.2389 10.2328 14.9293 10.1632 14.6216 10.0942L15.0822 8.28067L13.936 8L13.4659 9.84976C13.2164 9.79397 12.9714 9.73883 12.7336 9.68073L12.7349 9.67491L11.1533 9.28703L10.8482 10.4901C10.8482 10.4901 11.6991 10.6816 11.6812 10.6934C12.1456 10.8073 12.2296 11.1092 12.2157 11.3485L11.6806 13.4565C11.7126 13.4645 11.754 13.476 11.7998 13.4941C11.7616 13.4848 11.7208 13.4746 11.6786 13.4646L10.9286 16.4176C10.8718 16.5562 10.7277 16.7642 10.403 16.6852C10.4145 16.7016 9.56943 16.4809 9.56943 16.4809L9 17.7702L10.4925 18.1357C10.7702 18.204 11.0423 18.2756 11.3102 18.3429L10.8356 20.2144L11.9812 20.4951L12.4512 18.6434C12.7642 18.7268 13.0679 18.8038 13.3653 18.8763L12.8968 20.7193L14.0438 21L14.5184 19.1319C16.4741 19.4954 17.9447 19.3489 18.5636 17.6116C19.0624 16.2129 18.5388 15.4061 17.5099 14.88C18.2593 14.7103 18.8234 14.2261 18.9739 13.2261ZM16.3534 16.8348C15.999 18.2335 13.601 17.4774 12.8236 17.2878L13.4534 14.8083C14.2308 14.9989 16.7238 15.3761 16.3534 16.8348ZM16.7081 13.2058C16.3848 14.4781 14.3889 13.8318 13.7415 13.6733L14.3125 11.4245C14.96 11.583 17.0448 11.8788 16.7081 13.2058Z" fill="white"/>
</svg>
