<svg width="29" height="29" viewBox="0 0 29 29" fill="none" xmlns="http://www.w3.org/2000/svg">
<rect width="29" height="29" rx="14.5" fill="#F5AC37"/>
<path d="M14.6791 15.3274H19.0386C19.1315 15.3274 19.1754 15.3274 19.1821 15.2032C19.2177 14.7513 19.2177 14.2968 19.1821 13.8443C19.1821 13.7565 19.1392 13.7202 19.0458 13.7202H10.3697C10.2624 13.7202 10.2334 13.7565 10.2334 13.8591V15.1595C10.2334 15.3274 10.2334 15.3274 10.4054 15.3274H14.6791V15.3274ZM18.6952 12.2003C18.7076 12.1672 18.7076 12.1309 18.6952 12.0982C18.6225 11.9367 18.5362 11.7826 18.4361 11.6379C18.2853 11.3906 18.1077 11.1628 17.9053 10.9582C17.8098 10.8346 17.6993 10.7236 17.5754 10.6294C16.9549 10.0912 16.2171 9.71032 15.4241 9.51882C15.024 9.42728 14.6151 9.38361 14.2052 9.3873H10.3548C10.2474 9.3873 10.2329 9.43096 10.2329 9.52618V12.1198C10.2329 12.2292 10.2329 12.2587 10.3692 12.2587H18.6436C18.6436 12.2587 18.7154 12.244 18.7298 12.2003H18.6947H18.6952ZM18.6952 16.8472C18.5734 16.8336 18.4505 16.8336 18.3287 16.8472H10.377C10.2696 16.8472 10.2334 16.8472 10.2334 16.9935V19.5292C10.2334 19.646 10.2334 19.6755 10.377 19.6755H14.0482C14.2238 19.6892 14.3993 19.6765 14.5712 19.6392C15.104 19.6003 15.628 19.4824 16.1278 19.2883C16.3095 19.2241 16.4851 19.1405 16.6508 19.04H16.7009C17.5615 18.5839 18.2605 17.8673 18.7014 16.9877C18.7014 16.9877 18.7515 16.8772 18.6952 16.8483V16.8472ZM8.79252 20.9902V20.9465V19.2441V18.667V16.9498C8.79252 16.8546 8.79252 16.8404 8.6779 16.8404H7.12184C7.03562 16.8404 7 16.8404 7 16.7236V15.3353H8.66345C8.75638 15.3353 8.79252 15.3353 8.79252 15.2111V13.8375C8.79252 13.7496 8.79252 13.7281 8.6779 13.7281H7.12184C7.03562 13.7281 7 13.7281 7 13.6113V12.3255C7 12.245 7 12.2234 7.11461 12.2234H8.65622C8.76361 12.2234 8.79252 12.2234 8.79252 12.0846V8.14625C8.79252 8.02946 8.79252 8 8.93604 8H14.3136C14.7039 8.01578 15.0916 8.05945 15.4752 8.13152C16.2656 8.28041 17.0251 8.56818 17.7195 8.97905C18.18 9.25525 18.6039 9.58879 18.9813 9.97283C19.2652 10.2732 19.5213 10.5984 19.7485 10.9445C19.9741 11.2954 20.1615 11.6705 20.3086 12.0625C20.3267 12.1645 20.4227 12.2334 20.5229 12.2161H21.8063C21.971 12.2161 21.971 12.2161 21.9783 12.3771V13.5755C21.9783 13.6923 21.9354 13.7217 21.8203 13.7217H20.8306C20.7304 13.7217 20.7015 13.7217 20.7087 13.8533C20.748 14.2983 20.748 14.745 20.7087 15.1901C20.7087 15.3142 20.7087 15.3289 20.8455 15.3289H21.9777C22.0278 15.3947 21.9777 15.4605 21.9777 15.5268C21.985 15.6115 21.985 15.6972 21.9777 15.7819V16.6663C21.9777 16.7904 21.9421 16.8272 21.8342 16.8272H20.479C20.3845 16.8088 20.2926 16.8704 20.2709 16.9661C19.9483 17.821 19.432 18.5875 18.7649 19.202C18.5213 19.4256 18.2652 19.636 17.9978 19.8302C17.7107 19.9985 17.4314 20.1737 17.1371 20.3126C16.5955 20.5609 16.0276 20.744 15.4448 20.8602C14.8913 20.9613 14.3301 21.007 13.7669 20.9991H8.79045V20.9918L8.79252 20.9902Z" fill="#FEFEFD"/>
</svg>
