<svg width="29" height="29" viewBox="0 0 29 29" fill="none" xmlns="http://www.w3.org/2000/svg">
<rect width="29" height="29" rx="14.5" fill="#DEE6EA"/>
<path d="M18.6005 12.6677C18.3446 12.5252 18.0157 12.5252 17.7232 12.6677L15.6762 13.8427L14.2872 14.5905L12.2768 15.7656C12.0209 15.908 11.6919 15.908 11.3995 15.7656L9.82768 14.8398C9.5718 14.6973 9.38903 14.4125 9.38903 14.092V12.3116C9.38903 12.0267 9.53525 11.7418 9.82768 11.5638L11.3995 10.6736C11.6554 10.5312 11.9843 10.5312 12.2768 10.6736L13.8486 11.5994C14.1044 11.7418 14.2872 12.0267 14.2872 12.3472V13.5223L15.6762 12.7389V11.5282C15.6762 11.2433 15.53 10.9585 15.2376 10.7804L12.3133 9.10682C12.0574 8.96439 11.7285 8.96439 11.436 9.10682L8.43864 10.816C8.14621 10.9585 8 11.2433 8 11.5282V14.8754C8 15.1602 8.14621 15.4451 8.43864 15.6231L11.3995 17.2967C11.6554 17.4392 11.9843 17.4392 12.2768 17.2967L14.2872 16.1573L15.6762 15.3739L17.6867 14.2344C17.9426 14.092 18.2715 14.092 18.564 14.2344L20.1358 15.1246C20.3916 15.2671 20.5744 15.5519 20.5744 15.8724V17.6528C20.5744 17.9377 20.4282 18.2226 20.1358 18.4006L18.6005 19.2908C18.3446 19.4332 18.0157 19.4332 17.7232 19.2908L16.1514 18.4006C15.8956 18.2582 15.7128 17.9733 15.7128 17.6528V16.5134L14.3238 17.2967V18.4718C14.3238 18.7567 14.47 19.0415 14.7624 19.2196L17.7232 20.8932C17.9791 21.0356 18.3081 21.0356 18.6005 20.8932L21.5614 19.2196C21.8172 19.0772 22 18.7923 22 18.4718V15.089C22 14.8042 21.8538 14.5193 21.5614 14.3412L18.6005 12.6677Z" fill="#8247E5"/>
</svg>
