<svg width="29" height="29" viewBox="0 0 29 29" fill="none" xmlns="http://www.w3.org/2000/svg">
<rect width="29" height="29" rx="14.5" fill="#F00500"/>
<path d="M17.9809 8.33568C17.5905 8.72607 17.2329 9.1492 16.9149 9.60037L16.8144 9.56764C16.2347 9.37829 15.6339 9.2614 15.0284 9.22166C14.8461 9.20764 14.1658 9.20764 13.9437 9.22166C13.2728 9.26608 12.7585 9.3666 12.1741 9.56998C12.1507 9.57933 12.1297 9.58634 12.1086 9.59336C11.779 9.14452 11.412 8.72373 11.0076 8.33801C12.9479 7.34449 15.2178 7.22527 17.2492 8.0084C17.4666 8.09022 17.6794 8.18606 17.8874 8.28892L17.9809 8.33568Z" fill="#F00500"/>
<path d="M21.5996 17.2029C21.3051 18.0422 20.8633 18.8206 20.2905 19.4985C19.9796 19.8632 19.636 20.1975 19.2666 20.5014C18.4017 21.1981 17.3918 21.696 16.3141 21.9578C15.1219 22.2453 13.8782 22.2453 12.686 21.9578C11.606 21.696 10.5984 21.1981 9.73348 20.5014C9.36412 20.1975 9.02048 19.8632 8.70956 19.4985C7.06149 17.5512 6.56122 14.8769 7.40045 12.4667C7.55942 12.0202 7.75812 11.5901 7.99657 11.181C8.10644 10.994 8.24203 10.7836 8.30748 10.6971C8.5319 11.6626 8.80775 12.5112 8.91061 12.8174C8.90359 12.8338 8.89424 12.8525 8.88489 12.8688C8.34021 13.9722 8.04566 15.0359 7.97553 16.1673C7.97553 16.1814 7.97319 16.1977 7.97319 16.2117C7.95449 16.5507 7.96384 16.712 8.01994 16.9247C8.19527 17.591 8.73528 18.325 9.58153 19.045C10.9678 20.2232 12.8473 21.0742 14.271 21.1723C15.7554 21.2729 17.9458 20.4056 19.4045 19.1385C19.6336 18.9352 19.8487 18.7201 20.0497 18.491C20.1947 18.3227 20.4098 18.0328 20.3934 18.0328C20.3887 18.0328 20.3934 18.0281 20.4027 18.0235C20.4098 18.0188 20.4168 18.0118 20.4121 18.0071C20.4097 18.0048 20.4144 17.9977 20.4214 17.9954C20.4285 17.9931 20.4331 17.9884 20.4308 17.9837C20.4285 17.979 20.4308 17.9744 20.4401 17.972C20.4472 17.9697 20.4495 17.9627 20.4472 17.958C20.4448 17.9533 20.4472 17.9487 20.4518 17.9487C20.4565 17.9487 20.4612 17.9416 20.4612 17.937C20.4612 17.9323 20.4659 17.9253 20.4705 17.9253C20.4752 17.9253 20.4799 17.9206 20.4799 17.9159C20.4869 17.8972 20.4986 17.8785 20.5103 17.8622C20.5453 17.8084 20.6856 17.5583 20.7043 17.5162C20.8375 17.2146 20.9217 16.9458 20.9614 16.6769C20.9801 16.5484 20.9918 16.3123 20.9825 16.2562C20.9801 16.2468 20.9801 16.2304 20.9778 16.2047C20.9731 16.158 20.9708 16.0878 20.9661 16.0177C20.9614 15.9125 20.9521 15.7652 20.9451 15.6928C20.8446 14.6315 20.5734 13.7642 20.0591 12.8455C20.0381 12.8104 20.0194 12.7753 20.0077 12.7473C20.003 12.7403 20.0007 12.7332 19.9983 12.7286C20.0708 12.5112 20.3677 11.6018 20.6038 10.5615L20.6085 10.5662L20.6435 10.613C20.7043 10.6948 20.8656 10.9379 20.9381 11.0548C21.2677 11.5924 21.5248 12.1699 21.7072 12.773C22.1303 14.2247 22.0952 15.7723 21.5996 17.2029Z" fill="#F00500"/>
<path d="M18.5652 14.4092C18.5582 14.4466 18.4483 14.5588 18.3385 14.6406C18.0159 14.8767 17.4384 15.0965 16.8517 15.2017C16.5174 15.2625 16.1831 15.2718 16.0826 15.2227C16.0171 15.19 16.0078 15.1643 16.0312 15.0801C16.0802 14.9048 16.2392 14.7131 16.487 14.5331C16.6132 14.4419 17.1252 14.131 17.3636 14.0001C17.7564 13.785 18.0743 13.6565 18.2894 13.6261C18.3572 13.6167 18.439 13.6144 18.4647 13.6261C18.5068 13.6424 18.5535 13.7663 18.5722 13.916C18.5816 13.9954 18.5769 14.3461 18.5652 14.4092Z" fill="black"/>
<path d="M13.0577 15.1829C13.0437 15.2109 12.9736 15.2413 12.8941 15.253C12.8146 15.2647 12.5715 15.2577 12.4336 15.2413C11.938 15.1759 11.412 15.0239 11.0286 14.8369C10.8135 14.7317 10.6592 14.6265 10.5447 14.512L10.4792 14.4442L10.4722 14.3553C10.4605 14.201 10.4629 13.9579 10.4816 13.8714C10.4933 13.799 10.519 13.7288 10.5541 13.6657C10.5728 13.6423 10.5728 13.6423 10.6569 13.6423C10.7598 13.6423 10.8463 13.6587 10.9865 13.7031C11.2741 13.7919 11.7019 14.007 12.2232 14.3203C12.6533 14.5774 12.8146 14.7037 12.9385 14.8766C13.0227 14.9842 13.0788 15.1361 13.0577 15.1829Z" fill="black"/>
<path d="M16.3679 18.4373C16.3679 18.4443 16.3398 18.5565 16.3048 18.6898C16.2697 18.823 16.2416 18.9305 16.2416 18.9352C16.2159 18.9376 16.1925 18.9399 16.1668 18.9376H16.092L15.9892 19.1807C15.9331 19.3139 15.8816 19.4378 15.8746 19.4565L15.8606 19.4893L15.8115 19.4098L15.7624 19.3303V18.6827L15.7437 18.6874C15.704 18.6968 15.4211 18.7342 15.2972 18.7459C14.7853 18.7973 14.271 18.7856 13.7613 18.7131C13.6795 18.7014 13.6094 18.6921 13.6071 18.6944C13.6047 18.6968 13.6071 18.8464 13.6117 19.0311L13.6187 19.363L13.579 19.4238C13.558 19.4565 13.5369 19.4846 13.5369 19.4869C13.5299 19.4939 13.5065 19.4565 13.4528 19.349C13.3943 19.2368 13.3522 19.1176 13.3219 18.9937L13.3055 18.9259L13.233 18.9305L13.1606 18.9376L13.1418 18.8511C13.1325 18.8043 13.1208 18.7318 13.1161 18.6921L13.1091 18.6173L13.0483 18.5635C13.0133 18.5331 12.9782 18.5027 12.9712 18.4981C12.9595 18.4887 12.9548 18.4724 12.9548 18.4583V18.4303L13.247 18.4326L13.5393 18.4349L13.5486 18.4653L13.558 18.4957L13.6585 18.5004C13.7146 18.5027 13.8923 18.5074 14.0512 18.5121L14.3434 18.5191L14.4182 18.4022L14.4954 18.2853H14.5936L14.5912 18.0422L14.5889 17.7991L14.4603 17.743C14.0465 17.5607 13.8034 17.3526 13.7122 17.1001C13.6935 17.0487 13.6935 17.03 13.6889 16.7962C13.6865 16.5648 13.6865 16.5438 13.7029 16.4923C13.7356 16.3754 13.8268 16.2843 13.9437 16.2539C13.9834 16.2422 14.0886 16.2422 14.6403 16.2422L15.2902 16.2445L15.3627 16.2796C15.4492 16.3217 15.4889 16.3521 15.538 16.4175C15.5941 16.4923 15.6105 16.5508 15.6105 16.6934C15.6105 16.8967 15.5964 17.0721 15.5754 17.1422C15.545 17.238 15.4983 17.3292 15.4398 17.411C15.3229 17.5607 15.1102 17.7103 14.9162 17.7781L14.8601 17.7991L14.8624 18.0446L14.8647 18.29L14.9162 18.2947L14.9676 18.2994L15.0377 18.4046L15.1055 18.5098H15.4188C15.5918 18.5098 15.7437 18.5121 15.7577 18.5144C15.7811 18.5191 15.7858 18.5168 15.8092 18.477L15.8372 18.4349H16.1061C16.3071 18.4256 16.3679 18.4303 16.3679 18.4373Z" fill="black"/>
<path d="M15.1336 19.1076C15.0892 19.1334 15.0588 19.145 15.0518 19.1404C15.0448 19.138 15.0121 19.11 14.977 19.0843L14.9139 19.0328L14.8484 19.103C14.7058 19.2573 14.7012 19.2643 14.6591 19.2666C14.5936 19.2736 14.5796 19.2619 14.5001 19.1427C14.4581 19.0819 14.4253 19.0305 14.4253 19.0305C14.4253 19.0305 14.3949 19.0258 14.3599 19.0235L14.2944 19.0165L14.264 19.0796L14.2336 19.1427L14.1799 19.1263C14.1378 19.1123 14.0957 19.096 14.056 19.0772L13.9858 19.0422V18.9089L14.6077 18.9113L15.2295 18.9136L15.2318 18.9767C15.2342 19.0515 15.2365 19.0492 15.1336 19.1076Z" fill="black"/>
<path d="M20.9777 16.2555C20.9754 16.2462 20.9754 16.2298 20.9731 16.2041C20.412 16.1433 18.8107 16.1059 17.3239 17.3332C17.3239 17.3332 16.8447 15.1357 14.6005 15.1357C12.3563 15.1357 11.5241 17.3332 11.5241 17.3332C10.2664 15.9797 8.58325 16.0778 7.97545 16.1667C7.97545 16.1807 7.97311 16.1971 7.97311 16.2111C7.95441 16.5501 7.96376 16.7114 8.01986 16.9241C8.19519 17.5903 8.7352 18.3244 9.58145 19.0444C10.9677 20.2226 12.8472 21.0735 14.2709 21.1717C15.7553 21.2722 17.9457 20.4049 19.4045 19.1379C19.6336 18.9345 19.8486 18.7194 20.0497 18.4903C20.1946 18.322 20.4097 18.0322 20.3933 18.0322C20.3886 18.0322 20.3933 18.0275 20.4027 18.0228C20.4097 18.0181 20.4167 18.0111 20.412 18.0064C20.4097 18.0041 20.4143 17.9971 20.4214 17.9947C20.4284 17.9924 20.4331 17.9877 20.4307 17.9831C20.4284 17.9784 20.4307 17.9737 20.4401 17.9714C20.4471 17.969 20.4494 17.962 20.4471 17.9573C20.4447 17.9527 20.4471 17.948 20.4518 17.948C20.4564 17.948 20.4611 17.941 20.4611 17.9363C20.4611 17.9316 20.4658 17.9246 20.4705 17.9246C20.4751 17.9246 20.4798 17.9199 20.4798 17.9153C20.4868 17.8966 20.4985 17.8779 20.5102 17.8615C20.5453 17.8077 20.6855 17.5576 20.7042 17.5155C20.8375 17.214 20.9216 16.9451 20.9614 16.6763C20.9754 16.5477 20.9871 16.3116 20.9777 16.2555ZM15.1335 19.1075C15.0891 19.1332 15.0587 19.1449 15.0517 19.1402C15.0447 19.1379 15.0119 19.1098 14.9769 19.0841L14.9137 19.0327L14.8483 19.1028C14.7057 19.2571 14.701 19.2641 14.6589 19.2665C14.5935 19.2735 14.5795 19.2618 14.5 19.1426C14.4579 19.0818 14.4252 19.0303 14.4252 19.0303C14.4252 19.0303 14.3948 19.0257 14.3597 19.0233L14.2942 19.0163L14.2639 19.0794L14.2335 19.1426L14.1797 19.1262C14.1376 19.1122 14.0955 19.0958 14.0558 19.0771L13.9857 19.042V18.9088L14.6075 18.9111L15.2293 18.9135L15.2317 18.9766C15.234 19.0514 15.2363 19.0491 15.1335 19.1075ZM16.3023 18.6867C16.2673 18.82 16.2392 18.9275 16.2392 18.9322C16.2135 18.9345 16.1901 18.9368 16.1644 18.9345H16.0896L15.9891 19.18C15.933 19.3132 15.8815 19.4371 15.8745 19.4558L15.8605 19.4885L15.8114 19.4091L15.7623 19.3296V18.682L15.7436 18.6867C15.7039 18.6961 15.421 18.7335 15.2971 18.7452C14.7852 18.7966 14.2709 18.7849 13.7613 18.7124C13.6794 18.7007 13.6093 18.6914 13.607 18.6937C13.6046 18.6961 13.607 18.8457 13.6116 19.0303L13.6187 19.3623L13.5789 19.4231C13.5579 19.4558 13.5368 19.4839 13.5368 19.4862C13.5298 19.4932 13.5064 19.4558 13.4527 19.3483C13.3942 19.2361 13.3522 19.1168 13.3218 18.9929L13.3054 18.9252L13.2329 18.9298L13.1605 18.9368L13.1418 18.8503C13.1324 18.8036 13.1207 18.7311 13.116 18.6914L13.109 18.6166L13.0483 18.5628C13.0132 18.5324 12.9781 18.502 12.9711 18.4974C12.9594 18.488 12.9547 18.4716 12.9547 18.4576V18.4296L13.247 18.4319L13.5392 18.4342L13.5485 18.4646L13.5579 18.495L13.6584 18.4997C13.7145 18.502 13.8922 18.5067 14.0511 18.5114L14.3433 18.5184L14.4181 18.4015L14.4953 18.2846H14.5935L14.5911 18.0415L14.5888 17.7984L14.4602 17.7423C14.0465 17.5599 13.8033 17.3519 13.7122 17.0994C13.6935 17.048 13.6935 17.0293 13.6888 16.7955C13.6864 16.5641 13.6864 16.543 13.7028 16.4916C13.7355 16.3747 13.8267 16.2836 13.9436 16.2532C13.9833 16.2415 14.0885 16.2415 14.6402 16.2415L15.2901 16.2438L15.3626 16.2789C15.4491 16.321 15.4888 16.3513 15.5379 16.4168C15.594 16.4916 15.6104 16.55 15.6104 16.6926C15.6104 16.896 15.5963 17.0714 15.5753 17.1415C15.5449 17.2373 15.4982 17.3285 15.4397 17.4103C15.3228 17.5599 15.1101 17.7095 14.9161 17.7773L14.86 17.7984L14.8623 18.0438L14.8646 18.2893L14.9161 18.294L14.9675 18.2986L15.0376 18.4038L15.1054 18.509H15.4187C15.5917 18.509 15.7436 18.5114 15.7576 18.5137C15.781 18.5184 15.7857 18.5161 15.8091 18.4763L15.8371 18.4342H16.106C16.314 18.4342 16.3748 18.4366 16.3748 18.4436C16.3678 18.4412 16.3374 18.5558 16.3023 18.6867Z" fill="white"/>
<path d="M20.9592 16.0174C20.9545 15.9122 20.9452 15.7649 20.9382 15.6924C20.8376 14.6311 20.5665 13.7638 20.0522 12.8451C20.0311 12.8101 20.0124 12.775 20.0008 12.7469C19.9961 12.7399 19.9937 12.7329 19.9914 12.7282C20.0639 12.5108 20.3608 11.6015 20.5969 10.5612C20.9171 9.14922 21.1205 7.4988 20.4987 7.00321C20.4987 7.00321 19.4233 6.92373 17.9833 8.3357C17.5929 8.7261 17.2353 9.14922 16.9173 9.6004L16.8168 9.56767C16.2371 9.37831 15.6363 9.26143 15.0308 9.22169C14.8485 9.20766 14.1682 9.20766 13.9461 9.22169C13.2752 9.26611 12.7609 9.36663 12.1765 9.57001C12.1531 9.57936 12.1321 9.58637 12.111 9.59338C11.7814 9.14455 11.4144 8.72376 11.01 8.33804C9.51149 6.91906 8.39641 7.00087 8.39641 7.00087C7.73718 7.51283 7.9616 9.23805 8.3029 10.6968C8.52732 11.6622 8.80317 12.5108 8.90603 12.8171C8.89901 12.8334 8.88966 12.8521 8.88031 12.8685C8.33563 13.9719 8.04108 15.0355 7.97095 16.167C8.58109 16.0782 10.2619 15.9776 11.5219 17.3335C11.5219 17.3335 12.3541 15.1361 14.5983 15.1361C16.8425 15.1361 17.3217 17.3335 17.3217 17.3335C18.8085 16.1062 20.4098 16.146 20.9709 16.2044C20.9686 16.1576 20.9639 16.0875 20.9592 16.0174ZM9.34785 11.9358C9.34785 11.9358 8.47355 9.75001 8.69797 8.50168C8.73537 8.29129 8.80551 8.10661 8.91538 7.96634C8.91538 7.96634 9.90656 8.06453 11.5055 9.84118C11.5055 9.84118 11.2016 9.98845 10.7949 10.3017C10.7949 10.3017 10.7926 10.304 10.7902 10.304C10.3484 10.643 9.78267 11.1807 9.34785 11.9358ZM13.0578 15.1828C13.0438 15.2109 12.9736 15.2413 12.8941 15.253C12.8147 15.2646 12.5715 15.2576 12.4336 15.2413C11.938 15.1758 11.412 15.0239 11.0287 14.8368C10.8136 14.7316 10.6593 14.6265 10.5448 14.5119L10.4793 14.4441L10.4723 14.3553C10.4606 14.201 10.4629 13.9579 10.4816 13.8714C10.4933 13.7989 10.519 13.7288 10.5541 13.6657C10.5728 13.6423 10.5728 13.6423 10.657 13.6423C10.7598 13.6423 10.8463 13.6586 10.9866 13.7031C11.2741 13.7919 11.7019 14.007 12.2232 14.3202C12.6534 14.5774 12.8147 14.7036 12.9386 14.8766C13.0227 14.9841 13.0788 15.1361 13.0578 15.1828ZM18.5654 14.409C18.5584 14.4464 18.4485 14.5587 18.3386 14.6405C18.016 14.8766 17.4386 15.0963 16.8519 15.2015C16.5176 15.2623 16.1833 15.2717 16.0828 15.2226C16.0173 15.1898 16.008 15.1641 16.0313 15.08C16.0804 14.9046 16.2394 14.7129 16.4872 14.5329C16.6134 14.4418 17.1254 14.1309 17.3638 13.9999C17.7566 13.7849 18.0745 13.6563 18.2896 13.6259C18.3573 13.6166 18.4392 13.6142 18.4649 13.6259C18.507 13.6423 18.5537 13.7662 18.5724 13.9158C18.5818 13.9953 18.5771 14.3459 18.5654 14.409ZM18.1773 10.3017L18.1727 10.2994C17.7799 9.98612 17.4854 9.83884 17.4854 9.83884C19.0306 8.06219 19.9867 7.96401 19.9867 7.96401C20.0919 8.10661 20.1597 8.28895 20.1971 8.49934C20.4145 9.74767 19.5706 11.9358 19.5706 11.9358C19.2176 11.3069 18.7431 10.7505 18.1773 10.3017Z" fill="#FFA409"/>
<path d="M20.1994 8.49944C20.0171 8.47607 19.1545 8.47139 18.1773 10.3018L18.1726 10.2995C17.7799 9.98622 17.4854 9.83895 17.4854 9.83895C19.0306 8.06229 19.9867 7.96411 19.9867 7.96411C20.0942 8.10671 20.162 8.28905 20.1994 8.49944Z" fill="#FF9300"/>
<path d="M19.5729 11.9359C19.2175 11.3048 18.7453 10.7507 18.1772 10.3019C19.1544 8.47146 20.0147 8.47614 20.1994 8.49952C20.4168 9.75019 19.5729 11.9359 19.5729 11.9359Z" fill="#FF8300"/>
<path d="M20.2345 8.50604C20.2228 8.5037 20.2112 8.50136 20.1995 8.49902L20.2345 8.50604Z" fill="#FF8300"/>
<path d="M11.5055 9.8387C11.5055 9.8387 11.2016 9.98598 10.7948 10.2992C10.7948 10.2992 10.7925 10.3016 10.7901 10.3016C9.77791 8.46881 8.88725 8.47582 8.69556 8.4992C8.73296 8.28881 8.80309 8.10413 8.91296 7.96387C8.9153 7.96387 9.90648 8.06205 11.5055 9.8387Z" fill="#FF9300"/>
<path d="M10.7923 10.3019C10.3481 10.6432 9.78242 11.1785 9.34761 11.9359C9.34761 11.9359 8.47331 9.75019 8.69773 8.49952C8.88708 8.47614 9.78008 8.47146 10.7923 10.3019Z" fill="#FF8300"/>
<path d="M8.6978 8.49902C8.68611 8.50136 8.67209 8.5037 8.6604 8.50604L8.6978 8.49902Z" fill="#FF8300"/>
<path d="M17.2071 13.149C17.2071 13.149 16.459 13.1957 16.5525 12.6113C16.646 12.0269 17.2305 11.9567 17.3941 11.9801C17.5577 12.0035 18.2123 12.2373 18.0954 12.7282C17.9785 13.2191 17.8149 13.1256 17.7214 13.149C17.6279 13.1723 17.2071 13.149 17.2071 13.149Z" fill="white"/>
<path d="M11.6902 13.149C11.6902 13.149 10.9422 13.1957 11.0357 12.6113C11.1292 12.0269 11.7136 11.9567 11.8772 11.9801C12.0409 12.0035 12.6954 12.2373 12.5786 12.7282C12.4617 13.2191 12.298 13.1256 12.2045 13.149C12.111 13.1723 11.6902 13.149 11.6902 13.149Z" fill="white"/>
</svg>
