<svg width="29" height="29" viewBox="0 0 29 29" fill="none" xmlns="http://www.w3.org/2000/svg">
<rect width="29" height="29" rx="14.5" fill="#100439"/>
<path d="M10.3833 11.3311C10.2955 11.2209 10.1624 11.1596 10.0202 11.1596H7.08776C7.06355 11.1596 7.04237 11.1504 7.02421 11.1351C7.00908 11.1198 7 11.1014 7 11.08V9.08022C7 9.05878 7.00908 9.04041 7.02421 9.02509C7.04237 9.00672 7.06355 8.99753 7.08776 9.00059H10.1866C10.9674 9.00059 11.6422 9.32521 12.2111 9.97138L12.9647 10.9024L11.4969 12.7123L10.3833 11.3311ZM15.8002 9.9622C16.3661 9.32215 17.044 9.00059 17.8338 9.00059H20.9236C20.9448 8.99753 20.966 9.00672 20.9811 9.01897C20.9962 9.03428 21.0023 9.05572 20.9992 9.08022V11.08C20.9992 11.1014 20.9932 11.1198 20.9811 11.1351C20.966 11.1535 20.9448 11.1627 20.9236 11.1596H17.9912C17.852 11.1565 17.7188 11.2209 17.628 11.3311L15.4673 13.9924L17.6371 16.672C17.7249 16.773 17.855 16.8343 17.9882 16.8312H20.9206C20.9417 16.8282 20.966 16.8404 20.9781 16.8557C20.9902 16.8741 20.9992 16.8986 20.9962 16.92V18.9198C20.9962 18.9412 20.9902 18.9596 20.9781 18.9749C20.9629 18.9933 20.9417 19.0025 20.9206 18.9994H17.8338C17.044 18.9994 16.3722 18.6748 15.8093 18.0286L14.0117 15.8084L12.2142 18.0286C11.6483 18.6748 10.9704 18.9994 10.1805 18.9994H7.08776C7.06658 19.0025 7.04237 18.9902 7.03026 18.9749C7.01513 18.9565 7.00908 18.932 7.0121 18.9106V16.9108C7.0121 16.8894 7.01816 16.871 7.03026 16.8557C7.04539 16.8373 7.06658 16.8282 7.08776 16.8312H10.0202C10.1594 16.8312 10.2925 16.7669 10.3833 16.6597L12.5047 14.0383L15.8002 9.9622Z" fill="#00D1FF"/>
</svg>
