<svg width="29" height="29" viewBox="0 0 29 29" fill="none" xmlns="http://www.w3.org/2000/svg">
<rect width="29" height="29" rx="14.5" fill="#DEE6EA"/>
<path fill-rule="evenodd" clip-rule="evenodd" d="M9.59949 9.15286C9.70006 9.05632 9.83281 9 9.96958 9H22.7377C22.971 9 23.0877 9.28159 22.9228 9.44652L20.4005 11.9688C20.304 12.0653 20.1712 12.1216 20.0304 12.1216H7.26229C7.02897 12.1216 6.91231 11.84 7.07724 11.6751L9.59949 9.15286ZM9.59949 18.5702C9.69604 18.4736 9.82879 18.4173 9.96958 18.4173H22.7377C22.971 18.4173 23.0877 18.6989 22.9228 18.8638L20.4005 21.3861C20.304 21.4826 20.1712 21.539 20.0304 21.539H7.26229C7.02897 21.539 6.91231 21.2574 7.07724 21.0924L9.59949 18.5702ZM20.0304 13.6783C20.1712 13.6783 20.304 13.7346 20.4005 13.8312L22.9228 16.3534C23.0877 16.5184 22.971 16.7999 22.7377 16.7999H9.96958C9.82879 16.7999 9.69604 16.7436 9.59949 16.6471L7.07724 14.1248C6.91231 13.9599 7.02897 13.6783 7.26229 13.6783H20.0304Z" fill="url(#paint0_linear_917_752)"/>
<defs>
<linearGradient id="paint0_linear_917_752" x1="19.5738" y1="6.47811" x2="10.7372" y2="23.4037" gradientUnits="userSpaceOnUse">
<stop stop-color="#00FFA3"/>
<stop offset="1" stop-color="#DC1FFF"/>
</linearGradient>
</defs>
</svg>
