<svg width="29" height="29" viewBox="0 0 29 29" fill="none" xmlns="http://www.w3.org/2000/svg">
<rect width="29" height="29" rx="14.5" fill="#2775CA"/>
<path d="M18.0063 15.8913C18.0063 14.1934 16.9876 13.6112 14.95 13.3687C13.4946 13.1746 13.2035 12.7865 13.2035 12.1073C13.2035 11.428 13.6887 10.9915 14.6589 10.9915C15.5322 10.9915 16.0173 11.2826 16.2599 12.0103C16.3084 12.1558 16.454 12.2528 16.5995 12.2528H17.3756C17.5697 12.2528 17.7153 12.1073 17.7153 11.9133V11.8647C17.5212 10.7974 16.6479 9.97273 15.5322 9.87574V8.71143C15.5322 8.51733 15.3866 8.37179 15.1441 8.32324H14.4164C14.2223 8.32324 14.0768 8.46878 14.0282 8.71143V9.82719C12.5728 10.0213 11.6512 10.9915 11.6512 12.2044C11.6512 13.8053 12.6214 14.4359 14.6589 14.6785C16.0173 14.9211 16.454 15.2122 16.454 15.9884C16.454 16.7646 15.7747 17.2983 14.853 17.2983C13.5916 17.2983 13.155 16.7645 13.0094 16.0368C12.961 15.8429 12.8155 15.7458 12.6699 15.7458H11.8451C11.6512 15.7458 11.5056 15.8913 11.5056 16.0854V16.1339C11.6996 17.3467 12.4758 18.2199 14.0768 18.4626V19.6269C14.0768 19.8209 14.2223 19.9664 14.4648 20.015H15.1925C15.3866 20.015 15.5322 19.8694 15.5807 19.6269V18.4626C17.0361 18.2199 18.0063 17.2011 18.0063 15.8913V15.8913Z" fill="white"/>
<path d="M12.2819 21.1845C8.49786 19.8262 6.55729 15.6056 7.96425 11.87C8.69195 9.83246 10.2929 8.28008 12.2819 7.55238C12.476 7.45539 12.573 7.30985 12.573 7.06721V6.38807C12.573 6.19397 12.476 6.04844 12.2819 6C12.2333 6 12.1363 6 12.0878 6.04844C7.47908 7.50383 4.95636 12.4037 6.41175 17.0124C7.28499 19.7291 9.37109 21.8153 12.0878 22.6885C12.2819 22.7855 12.476 22.6885 12.5244 22.4944C12.573 22.446 12.573 22.3974 12.573 22.3004V21.6212C12.573 21.4756 12.4274 21.2816 12.2819 21.1845ZM17.4243 6.04844C17.2302 5.95145 17.0361 6.04844 16.9877 6.24253C16.9391 6.29108 16.9391 6.33951 16.9391 6.43662V7.11576C16.9391 7.30986 17.0847 7.50383 17.2302 7.60093C21.0143 8.95923 22.9548 13.1799 21.5479 16.9155C20.8202 18.953 19.2192 20.5054 17.2302 21.2331C17.0361 21.3301 16.9391 21.4756 16.9391 21.7183V22.3974C16.9391 22.5915 17.0361 22.737 17.2302 22.7855C17.2788 22.7855 17.3758 22.7855 17.4243 22.737C22.033 21.2816 24.5558 16.3817 23.1004 11.773C22.2271 9.00778 20.0925 6.92167 17.4243 6.04844V6.04844Z" fill="white"/>
</svg>
