<svg width="29" height="29" viewBox="0 0 29 29" fill="none" xmlns="http://www.w3.org/2000/svg">
<rect width="29" height="29" rx="14.5" fill="#50AF95"/>
<path fill-rule="evenodd" clip-rule="evenodd" d="M15.4243 14.9882C15.3447 14.9942 14.9337 15.0189 14.0169 15.0189C13.2877 15.0189 12.77 14.9969 12.5883 14.9882C9.7703 14.8632 7.66689 14.3687 7.66689 13.7766C7.66689 13.1845 9.7703 12.6906 12.5883 12.5637V14.4957C12.7726 14.509 13.3003 14.5404 14.0295 14.5404C14.9045 14.5404 15.3427 14.5037 15.4216 14.4963V12.565C18.2337 12.6913 20.3325 13.1858 20.3325 13.7766C20.3325 14.3673 18.2343 14.8619 15.4216 14.9875L15.4243 14.9882ZM15.4243 12.3652V10.6364H19.3487V8H8.6639V10.6364H12.5877V12.3645C9.39841 12.5122 7 13.1491 7 13.9122C7 14.6754 9.39841 15.3116 12.5877 15.46V21H15.4236V15.458C18.6056 15.3103 21 14.6741 21 13.9116C21 13.1491 18.6076 12.5129 15.4236 12.3645L15.4243 12.3652Z" fill="white"/>
</svg>
